<svg xmlns="http://www.w3.org/2000/svg" viewBox="0 0 100 100">
  <!-- Solid fortress silhouette — no strokes, fill only -->

  <!-- Left tower -->
  <rect x="6" y="28" width="24" height="59" fill="currentColor"/>
  <!-- Left battlements -->
  <path d="M6 28 L6 18 L16 18 L16 24 L20 24 L20 18 L30 18 L30 28Z" fill="currentColor"/>

  <!-- Right tower -->
  <rect x="70" y="28" width="24" height="59" fill="currentColor"/>
  <!-- Right battlements -->
  <path d="M70 28 L70 18 L80 18 L80 24 L84 24 L84 18 L94 18 L94 28Z" fill="currentColor"/>

  <!-- Center wall -->
  <rect x="13" y="43" width="74" height="44" fill="currentColor"/>
  <!-- Center battlements -->
  <path d="M26 43 L26 33 L38 33 L38 38 L45 38 L45 33 L55 33 L55 38 L62 38 L62 33 L74 33 L74 43Z" fill="currentColor"/>

  <!-- Gate arch cutout -->
  <path d="M36 87 L36 60 A14 14 0 0 1 64 60 L64 87Z" fill="white"/>

  <!-- Flag pole -->
  <rect x="16" y="6" width="3" height="12" fill="currentColor"/>
  <!-- Flag -->
  <path d="M19 6 L32 12 L19 18Z" fill="currentColor" opacity="0.8"/>
</svg>
