<?xml version="1.0" encoding="UTF-8"?>
<svg width="98px" height="95px" viewBox="0 0 98 95" version="1.1" xmlns="http://www.w3.org/2000/svg" xmlns:xlink="http://www.w3.org/1999/xlink">
    <title>p2</title>
    <g id="Page-1" stroke="none" stroke-width="1" fill="none" fill-rule="evenodd">
        <path d="M0.529999663,0.600000437 C32.8099997,0.550000437 65.0999997,0.690000437 97.3899997,0.670000437 C97.4099997,3.40000044 97.3799997,6.14000044 97.3099997,8.87000044 C94.9499997,8.89000044 92.5899997,8.91000044 90.2299997,8.93000044 C90.1399997,34.7800004 90.3899997,60.6300004 90.1399997,86.4800004 C92.5199997,86.5400004 94.9099997,86.5800004 97.2899997,86.6400004 C97.3499997,89.3300004 97.3799997,92.0200004 97.3699997,94.7200004 C65.0899997,94.6100004 32.7999997,94.8800004 0.529999663,94.6400004 C0.529999663,91.9300004 0.559999663,89.2200004 0.619999663,86.5100004 C2.96999966,86.4800004 5.32999966,86.4400004 7.68999966,86.4100004 C7.55999966,60.5600004 7.63999966,34.7200004 7.64999966,8.87000044 C5.28999966,8.87000044 2.92999966,8.86000044 0.569999663,8.85000044 C0.489999663,6.10000044 0.469999663,3.35000044 0.529999663,0.600000437 Z M15.1499997,8.94000044 C14.9999997,17.8300004 14.9399997,26.7200004 14.8999997,35.6100004 C20.8299997,35.7200004 26.7599997,35.6700004 32.6899997,35.7000004 C32.6799997,26.8200004 32.6699997,17.9300004 32.6299997,9.05000044 C26.7999997,9.04000044 20.9799997,9.14000044 15.1499997,8.94000044 Z M39.8999997,8.90000044 C39.8899997,34.7400004 39.9699997,60.5900004 39.8999997,86.4300004 C45.9399997,86.5300004 51.9899997,86.4700004 58.0399997,86.3900004 C57.6399997,60.5700004 57.9299997,34.7400004 57.8499997,8.92000044 C51.8699997,8.85000044 45.8799997,8.87000044 39.8999997,8.90000044 Z M65.2399997,8.83000044 C65.1499997,34.6800004 65.2599997,60.5400004 65.1099997,86.3900004 C71.0699997,86.3700004 77.0199997,86.4500004 82.9799997,86.3900004 C82.7399997,60.5600004 82.9899997,34.7100004 82.8299997,8.88000044 C76.9599997,8.97000044 71.1099997,8.90000044 65.2399997,8.83000044 Z M21.3899997,48.6300004 C21.4599997,50.3500004 21.5099997,52.0800004 21.5499997,53.8100004 C22.7899997,53.8100004 24.0299997,53.8200004 25.2799997,53.8200004 C25.2899997,52.0300004 25.3099997,50.2400004 25.3699997,48.4500004 C26.4799997,46.9100004 27.6499997,45.3700004 26.6199997,43.4400004 C25.2499997,40.6800004 20.6099997,41.0000004 19.8399997,44.0800004 C19.3299997,46.0800004 20.4399997,47.0700004 21.3899997,48.6300004 Z M15.0599997,59.8600004 C14.7999997,68.7100004 15.1699997,77.5300004 15.0199997,86.3700004 C20.9099997,86.4100004 26.7899997,86.4100004 32.6699997,86.4400004 C32.7199997,77.5600004 32.6699997,68.6900004 32.6899997,59.8100004 C26.8099997,59.7600004 20.9399997,59.7500004 15.0599997,59.8600004 Z" id="p2" fill="#000000" fill-rule="nonzero"></path>
    </g>
</svg>